<?xml version="1.0" standalone="no"?>
<!DOCTYPE svg PUBLIC "-//W3C//DTD SVG 20010904//EN"
 "http://www.w3.org/TR/2001/REC-SVG-20010904/DTD/svg10.dtd">
<svg version="1.0" xmlns="http://www.w3.org/2000/svg"
 width="621.000000pt" height="878.000000pt" viewBox="0 0 621.000000 878.000000"
 preserveAspectRatio="xMidYMid meet">

<g transform="translate(0.000000,878.000000) scale(0.100000,-0.100000)"
fill="#000000" stroke="none">
<path d="M1249 8385 c-66 -34 -126 -123 -150 -220 -4 -18 -7 17 -8 91 -1 79
-5 124 -13 132 -17 17 -262 17 -276 -1 -6 -7 -16 -52 -23 -100 -7 -48 -15 -87
-19 -87 -4 0 -12 37 -19 82 -19 125 -10 118 -159 118 -86 0 -132 -4 -140 -12
-17 -17 -17 -879 0 -896 16 -16 170 -16 186 0 7 7 13 28 13 48 l1 35 7 -35
c11 -57 16 -60 95 -60 78 0 96 9 97 50 0 22 2 21 12 -10 l12 -35 100 -3 c125
-4 125 -4 126 132 l0 101 22 -58 c26 -68 92 -147 140 -171 46 -21 145 -21 176
1 19 13 28 14 42 5 25 -16 132 -15 147 0 8 8 12 47 12 110 l0 98 105 0 105 0
0 -91 c0 -130 -1 -129 123 -129 67 0 107 4 115 12 8 8 12 58 12 160 0 141 1
148 20 148 19 0 20 -7 20 -148 0 -102 4 -152 12 -160 17 -17 382 -17 395 1 6
6 13 30 17 52 16 98 14 95 56 95 37 0 37 0 44 -49 4 -27 11 -63 17 -80 l11
-31 108 0 c78 0 110 4 113 13 4 10 7 10 18 0 18 -17 200 -18 217 -1 9 9 12 94
12 320 l0 308 24 0 c14 0 27 -3 29 -7 2 -5 0 -46 -5 -93 -10 -94 2 -242 26
-325 23 -74 75 -155 124 -189 35 -25 55 -31 111 -34 105 -6 160 28 220 138
l31 55 0 -80 c0 -50 5 -86 12 -93 8 -8 47 -12 108 -12 61 0 100 4 108 12 8 8
12 58 12 160 0 141 1 148 20 148 19 0 20 -7 20 -148 0 -102 4 -152 12 -160 8
-8 48 -12 115 -12 86 0 104 3 113 18 9 16 11 16 21 -1 9 -16 36 -17 344 -17
292 1 334 3 339 16 3 9 6 47 6 85 0 38 4 69 8 69 4 0 14 -27 21 -61 23 -113
18 -109 146 -109 89 0 115 3 125 15 11 13 5 47 -34 195 l-47 180 21 22 c34 36
51 75 57 131 6 52 22 100 23 67 0 -8 18 -62 40 -120 l40 -105 0 -180 c0 -128
4 -185 12 -193 16 -16 200 -16 216 0 8 8 12 66 12 196 l0 184 83 244 c65 195
80 247 71 261 -9 15 -28 19 -99 21 -49 2 -92 -2 -99 -8 -7 -5 -24 -44 -37 -85
-13 -41 -26 -71 -30 -67 -4 4 -14 32 -24 62 -32 101 -30 100 -156 100 -104 0
-111 -1 -116 -21 -6 -22 -7 -22 -80 5 -35 13 -106 16 -435 16 -391 0 -393 0
-409 -22 l-17 -21 -6 21 c-7 21 -14 22 -110 22 -66 0 -106 -4 -114 -12 -8 -8
-12 -57 -12 -155 0 -136 -1 -143 -20 -143 -19 0 -20 7 -20 143 0 98 -4 147
-12 155 -8 8 -47 12 -108 12 -61 0 -100 -4 -108 -12 -7 -7 -12 -44 -12 -93
l-1 -80 -26 50 c-52 103 -115 145 -215 145 -77 0 -129 -26 -173 -87 -16 -23
-33 -42 -37 -42 -5 -1 -8 21 -8 47 0 26 -5 53 -12 60 -9 9 -70 12 -215 12
-190 0 -203 -1 -213 -19 -14 -28 -13 -234 2 -249 7 -7 31 -12 55 -12 l43 0 0
-272 c0 -149 -2 -269 -4 -267 -2 2 -39 182 -81 399 -54 273 -82 399 -93 408
-23 18 -206 17 -221 -2 -6 -7 -27 -92 -45 -187 -19 -96 -47 -239 -62 -319
l-29 -145 -3 319 c-1 215 -6 324 -13 333 -15 17 -200 18 -217 1 -8 -8 -12 -57
-12 -155 0 -136 -1 -143 -20 -143 -19 0 -20 7 -20 143 0 98 -4 147 -12 155 -8
8 -47 12 -109 12 -134 0 -129 9 -129 -235 l0 -190 -105 3 c-81 3 -105 6 -105
17 0 8 -9 20 -19 27 -19 14 -19 14 1 27 17 11 19 19 13 59 -19 131 -77 233
-156 276 -63 35 -154 35 -220 1z m68 -209 c-26 -39 -40 -149 -35 -275 3 -99 7
-123 26 -153 43 -69 109 -54 127 30 l7 32 -46 0 -46 0 0 90 0 90 120 0 120 0
0 -102 c0 -57 -3 -160 -7 -230 l-6 -128 -33 0 c-28 0 -33 4 -39 30 -9 41 -20
45 -43 15 -24 -30 -80 -55 -119 -54 l-28 1 25 8 c20 7 14 8 -25 8 -63 -2 -95
18 -133 80 -76 126 -93 378 -36 529 12 32 20 41 26 31 6 -8 11 -9 14 -2 3 6
22 8 53 4 33 -4 55 -2 67 7 26 19 28 16 11 -11z m152 5 c30 -1 58 -4 62 -7 4
-2 9 2 11 8 6 18 24 -18 33 -63 8 -41 6 -42 -91 -55 l-51 -6 -7 42 c-4 23 -14
56 -23 74 -12 23 -13 28 -2 20 8 -6 38 -12 68 -13z m1175 1 l87 3 14 -49 c19
-63 103 -481 111 -552 l7 -54 -76 0 -76 0 -11 58 c-23 114 -13 103 -93 100
l-71 -3 -8 -40 c-4 -22 -12 -57 -18 -77 l-11 -38 -58 0 c-55 0 -58 1 -55 23
23 141 103 548 120 610 3 9 12 17 20 17 8 0 14 6 14 13 0 9 2 9 9 -1 6 -10 31
-13 95 -10z m292 1 c-3 -20 -54 -27 -78 -12 -8 6 1 9 25 9 20 0 37 5 37 10 0
6 4 10 9 10 5 0 8 -8 7 -17z m551 11 c-3 -3 -12 -4 -19 -1 -8 3 -5 6 6 6 11 1
17 -2 13 -5z m940 -12 c12 10 15 9 13 -7 -1 -11 -2 -46 -1 -77 l1 -58 95 0 95
0 0 -90 0 -89 -92 -3 -93 -3 -3 -67 -3 -68 121 0 120 0 0 -64 c0 -35 -3 -78
-6 -95 l-6 -31 -189 0 -188 0 -3 198 c-3 170 4 486 10 457 3 -14 102 -6 103 8
1 7 3 4 6 -6 4 -15 7 -16 20 -5z m546 11 c-13 -2 -33 -2 -45 0 -13 2 -3 4 22
4 25 0 35 -2 23 -4z m107 -14 c25 -2 52 1 59 5 8 5 17 3 22 -5 7 -11 9 -9 9 6
l1 20 15 -20 c12 -16 15 -39 12 -105 -5 -88 -16 -122 -61 -173 l-25 -27 29
-113 c15 -62 35 -141 43 -175 l14 -62 -79 0 c-76 0 -79 1 -92 28 -15 28 -67
238 -67 266 0 11 -9 16 -30 16 l-30 0 0 -155 0 -155 -74 0 -73 0 -7 31 c-9 44
-5 568 4 604 5 21 8 24 10 10 l1 -20 9 20 c5 11 9 15 9 10 1 -6 20 -9 46 -7
65 6 75 -7 75 -89 l0 -69 50 0 c65 0 90 23 90 83 0 24 -7 52 -15 63 -18 23
-20 40 -2 26 6 -6 32 -11 57 -13z m372 -51 c6 -21 15 -38 19 -38 4 0 15 21 24
48 l17 47 49 0 c27 0 49 -4 49 -10 0 -5 5 -3 11 5 16 24 1 -40 -42 -176 -38
-118 -39 -127 -40 -270 -1 -204 1 -198 -82 -202 -37 -2 -68 -2 -68 0 -1 2 -5
86 -9 188 l-6 185 -43 115 c-63 168 -63 162 -9 159 24 -2 50 1 57 5 8 5 17 3
22 -5 7 -11 9 -9 9 6 1 20 1 20 16 0 8 -11 20 -37 26 -57z m-4757 52 c9 8 16
-7 29 -67 9 -43 19 -99 22 -125 4 -27 10 -48 13 -48 4 0 15 49 25 108 10 60
21 114 24 119 8 13 32 16 145 14 l87 -1 0 -325 0 -325 -70 0 -70 0 -2 178 c-1
97 -1 227 1 287 2 61 1 108 -2 105 -5 -5 -97 -538 -97 -561 0 -5 -22 -9 -49
-9 -39 0 -51 4 -55 18 -13 44 -86 477 -86 508 0 13 -4 25 -8 28 -5 3 -9 -63
-8 -147 0 -84 0 -209 -2 -279 l-2 -128 -55 0 -55 0 0 326 0 326 95 -4 c59 -2
95 1 96 7 0 6 3 4 6 -3 3 -9 9 -10 18 -2z m1410 -130 l65 0 0 58 c0 31 5 64
10 72 5 8 10 11 10 5 0 -6 26 -9 64 -7 l63 4 7 -32 c8 -41 8 -583 0 -604 -5
-12 -21 -16 -75 -16 -83 0 -78 -10 -82 180 l-2 135 -57 3 -58 3 0 -63 c0 -35
-3 -107 -7 -160 l-6 -98 -74 0 -73 0 0 326 0 325 65 -2 c36 -1 68 1 72 5 5 4
9 -24 11 -63 l3 -71 64 0z m967 128 c3 -7 9 -8 18 -3 17 11 120 13 120 3 0 -4
-24 -8 -52 -10 l-53 -3 -2 -120 c0 -66 -2 -209 -2 -317 l-1 -198 -69 0 -69 0
-7 46 c-4 26 -5 172 -4 325 l3 278 51 4 c27 2 53 4 57 5 3 1 8 -3 10 -10z
m314 3 c11 9 14 8 14 -5 0 -15 2 -15 28 1 27 17 27 17 10 -2 -26 -31 -41 -144
-36 -279 3 -99 8 -128 24 -156 28 -50 67 -53 94 -8 11 18 20 43 20 55 0 48 8
53 73 46 34 -3 66 -9 71 -14 14 -12 -13 -130 -43 -190 -33 -66 -87 -102 -142
-96 -20 3 -42 1 -50 -4 -17 -9 -84 19 -115 49 -29 28 -60 94 -80 172 -13 51
-15 94 -11 210 3 80 11 162 18 182 11 33 15 36 40 31 15 -3 35 0 46 5 11 7 19
7 21 1 3 -6 9 -5 18 2z m234 -2 c0 10 3 11 14 2 11 -9 15 -9 18 1 7 20 29 -55
31 -104 l2 -43 -72 -3 -73 -3 0 39 c0 22 -7 56 -15 75 l-15 36 48 3 c26 2 50
-1 54 -7 5 -6 8 -5 8 4z m290 -71 l0 -58 65 0 65 0 0 71 c0 51 3 68 12 63 6
-4 40 -6 75 -5 l63 2 0 -325 0 -326 -73 0 -74 0 -6 98 c-4 53 -7 125 -7 160
l0 63 -57 -3 -58 -3 -2 -135 c-4 -192 1 -181 -86 -178 l-72 3 0 320 0 320 68
0 c38 0 67 4 67 10 0 6 5 3 10 -5 5 -8 10 -41 10 -72z m760 70 c0 -5 -47 -8
-105 -8 -58 0 -105 3 -105 8 0 4 47 7 105 7 58 0 105 -3 105 -7z m-3291 -75
c18 -62 15 -73 -19 -73 -25 0 -30 4 -30 24 0 30 20 86 31 86 4 0 13 -17 18
-37z m2121 -59 c0 -60 13 -66 119 -58 l91 7 0 -63 0 -63 -94 7 c-107 8 -109 7
-119 -73 -7 -55 -21 -71 -37 -41 -27 51 -21 327 8 374 9 16 31 -45 32 -90z
m1493 76 c9 -35 -3 -60 -29 -60 -21 0 -24 5 -24 40 0 35 3 40 24 40 15 0 26
-7 29 -20z m-293 -175 l0 -185 -110 0 -110 0 0 25 c0 28 0 28 87 26 103 -3
104 -1 101 142 l-3 122 -90 5 c-74 4 -90 8 -93 22 -3 15 9 18 105 21 59 1 109
4 111 5 1 1 2 -81 2 -183z m-2870 -110 l0 -95 -95 0 -95 0 0 95 0 95 95 0 95
0 0 -95z m-450 -75 c0 -5 -7 -10 -15 -10 -8 0 -15 5 -15 10 0 6 7 10 15 10 8
0 15 -4 15 -10z"/>
<path d="M2591 8017 c-7 -50 -15 -104 -18 -119 -5 -27 -4 -28 36 -28 22 0 41
1 41 3 -3 28 -39 229 -42 232 -2 3 -10 -37 -17 -88z"/>
<path d="M4333 7020 c-24 -10 -63 -33 -87 -49 -25 -17 -47 -31 -50 -31 -3 0
-28 16 -55 36 -153 109 -267 -9 -200 -209 11 -34 28 -73 36 -86 15 -23 15 -26
-8 -43 -209 -161 -356 -300 -475 -448 -279 -349 -444 -771 -493 -1267 -15
-141 -25 -434 -18 -465 6 -22 23 -31 124 -68 561 -203 1017 -541 1316 -976
108 -157 219 -402 261 -575 38 -160 41 -187 41 -379 -1 -162 -5 -211 -23 -293
-73 -329 -208 -577 -470 -865 -51 -56 -91 -102 -88 -102 8 0 231 136 299 182
86 58 261 200 335 272 268 257 441 573 504 916 29 162 29 423 -1 609 -39 247
-119 520 -236 810 -113 278 -135 324 -513 1092 -165 336 -195 399 -189 406 2
2 20 -4 40 -12 82 -34 145 -7 172 76 15 43 17 74 12 173 -3 67 -13 161 -22
210 -8 49 -14 91 -11 93 2 3 59 -34 126 -82 66 -48 123 -85 126 -82 3 2 -13
69 -34 148 -22 79 -37 147 -33 151 3 4 49 10 101 13 134 8 184 15 174 24 -5 5
-40 20 -79 34 -208 76 -236 89 -246 114 -5 14 -7 34 -4 44 7 22 74 59 106 59
13 0 42 9 65 21 33 15 49 32 68 72 30 59 32 95 10 160 -17 51 -77 112 -119
123 -15 4 -60 4 -100 2 l-73 -5 -21 56 c-51 139 -154 193 -268 141z m175 -512
c16 -16 16 -80 0 -96 -20 -20 -76 -15 -88 7 -26 49 -4 101 43 101 18 0 38 -5
45 -12z"/>
<path d="M2298 6943 c7 -3 16 -2 19 1 4 3 -2 6 -13 5 -11 0 -14 -3 -6 -6z"/>
<path d="M2285 6920 c-3 -5 -1 -10 4 -10 6 0 11 5 11 10 0 6 -2 10 -4 10 -3 0
-8 -4 -11 -10z"/>
<path d="M1585 5489 c-217 -82 -373 -179 -510 -316 -183 -184 -300 -432 -335
-716 -20 -154 -8 -422 25 -587 43 -218 119 -458 205 -645 10 -22 28 -64 41
-93 16 -39 25 -50 31 -40 7 9 8 8 4 -5 -3 -10 11 -50 34 -95 43 -83 46 -86 29
-32 -17 57 -19 102 -3 124 8 11 14 37 14 58 0 31 4 38 20 38 17 0 20 7 20 40
0 22 5 40 10 40 6 0 10 18 10 40 0 29 4 40 15 40 12 0 15 12 14 55 -1 31 1 59
5 62 3 3 6 -14 6 -38 0 -31 3 -40 9 -29 6 8 7 28 5 45 -4 23 -3 27 5 15 14
-20 14 -83 -1 -98 -9 -9 -9 -12 0 -12 18 0 25 44 17 108 -5 40 -10 51 -15 38
-11 -33 -3 305 9 364 43 197 147 331 323 413 55 26 81 47 59 47 -6 0 -11 16
-11 35 0 28 4 35 20 35 17 0 20 7 20 40 0 22 4 40 9 40 5 0 11 19 15 42 l7 43
22 -39 c12 -22 29 -41 37 -43 9 -3 11 -1 5 4 -6 4 -22 33 -36 63 -80 172 -94
242 -93 465 0 189 11 273 59 443 l23 82 -22 -1 c-11 0 -57 -14 -101 -30z
m-490 -2399 c-3 -5 -10 -10 -16 -10 -5 0 -9 5 -9 10 0 6 7 10 16 10 8 0 12 -4
9 -10z m-18 -62 c-3 -7 -5 -2 -5 12 0 14 2 19 5 13 2 -7 2 -19 0 -25z"/>
<path d="M1690 4475 c0 -8 5 -15 10 -15 6 0 10 7 10 15 0 8 -4 15 -10 15 -5 0
-10 -7 -10 -15z"/>
<path d="M449 4435 c-12 -19 -71 -206 -90 -283 -40 -162 -52 -286 -46 -477 9
-280 59 -472 194 -740 50 -98 168 -288 201 -323 6 -7 12 -16 12 -20 0 -4 13
-21 28 -38 15 -18 50 -60 77 -94 59 -75 354 -373 440 -446 177 -149 198 -166
344 -274 170 -126 315 -228 320 -224 3 3 -62 76 -184 210 -5 6 -21 25 -35 43
-14 18 -32 40 -41 49 -32 35 -189 232 -278 350 -153 204 -431 642 -431 680 0
6 -4 12 -9 14 -5 2 -39 64 -74 138 -111 230 -187 419 -242 600 -14 47 -33 107
-41 133 -38 123 -98 413 -123 592 -9 66 -19 116 -22 110z"/>
<path d="M1770 4416 c0 -4 9 -16 20 -28 11 -12 20 -17 20 -11 0 5 -9 18 -20
28 -11 10 -20 15 -20 11z"/>
<path d="M1680 4360 c0 -5 5 -10 10 -10 6 0 10 5 10 10 0 6 -4 10 -10 10 -5 0
-10 -4 -10 -10z"/>
<path d="M1818 4343 c7 -3 16 -2 19 1 4 3 -2 6 -13 5 -11 0 -14 -3 -6 -6z"/>
<path d="M1768 4333 c7 -3 16 -2 19 1 4 3 -2 6 -13 5 -11 0 -14 -3 -6 -6z"/>
<path d="M2987 4088 c2 -122 6 -278 9 -344 l6 -121 96 -34 c173 -59 361 -161
477 -258 108 -91 227 -238 288 -356 86 -169 119 -306 119 -505 0 -80 -2 -174
-6 -210 -5 -62 -5 -63 9 -35 9 19 14 24 15 13 0 -17 18 -18 240 -18 153 0 240
4 240 10 0 6 18 10 40 10 38 0 40 1 41 33 l2 32 6 -30 c4 -25 6 -21 11 25 l7
55 1 -70 c1 -38 -5 -86 -12 -106 -7 -19 -9 -44 -6 -55 6 -15 8 -12 13 16 3 19
12 76 20 125 21 132 15 319 -18 478 -14 70 -30 137 -35 150 -5 12 -21 56 -35
97 -51 141 -151 329 -239 447 -19 26 -39 53 -43 58 -21 28 -141 163 -168 189
-16 15 -55 51 -85 80 -143 135 -376 290 -590 393 -128 62 -320 138 -376 149
l-31 6 4 -224z m1580 -1740 c-3 -7 -5 -2 -5 12 0 14 2 19 5 13 2 -7 2 -19 0
-25z m-570 -40 c-3 -7 -5 -2 -5 12 0 14 2 19 5 13 2 -7 2 -19 0 -25z"/>
<path d="M1311 3164 c0 -11 3 -14 6 -6 3 7 2 16 -1 19 -3 4 -6 -2 -5 -13z"/>
<path d="M1111 3054 c0 -11 3 -14 6 -6 3 7 2 16 -1 19 -3 4 -6 -2 -5 -13z"/>
<path d="M1130 2908 c0 -9 5 -20 10 -23 13 -8 13 5 0 25 -8 13 -10 13 -10 -2z"/>
<path d="M2407 2793 c-11 -11 -8 -48 5 -61 32 -32 87 18 58 53 -13 15 -51 20
-63 8z"/>
<path d="M560 2483 c0 -18 41 -168 61 -221 48 -130 131 -254 242 -358 125
-118 270 -203 488 -285 134 -50 168 -61 359 -110 63 -16 124 -32 135 -35 17
-6 17 -5 4 8 -8 9 -30 23 -48 32 -18 10 -65 39 -104 65 -40 26 -106 70 -147
96 -41 27 -77 51 -80 54 -3 4 -23 18 -45 33 -22 14 -49 33 -60 42 -11 9 -56
42 -100 74 -44 31 -105 77 -135 101 -30 23 -73 57 -95 75 -89 70 -275 239
-351 317 -101 104 -124 125 -124 112z"/>
<path d="M3782 2319 c-2 -116 -12 -190 -23 -184 -4 3 -5 15 -2 28 3 12 7 65 8
117 1 52 0 64 -2 25 -2 -38 -8 -79 -13 -90 -5 -11 -11 -33 -12 -50 -3 -27 -6
-30 -37 -27 -32 2 -33 1 -28 -28 4 -17 2 -30 -3 -30 -6 0 -11 28 -12 63 0 34
-3 47 -5 30 -2 -18 -8 -33 -14 -33 -14 0 -10 -73 5 -93 13 -16 15 -16 30 -2
14 15 16 15 16 1 0 -9 -4 -16 -9 -16 -13 0 5 -61 20 -71 7 -4 9 -14 4 -25 -7
-17 -8 -17 -12 -2 -6 22 -33 12 -33 -13 0 -19 -20 -26 -34 -12 -14 15 -36 11
-36 -7 0 -10 -13 -48 -30 -85 -24 -53 -28 -71 -19 -87 12 -23 2 -39 -11 -18
-10 16 -13 8 -11 -25 1 -14 -1 -16 -7 -7 -6 9 -14 4 -30 -18 -12 -16 -22 -35
-22 -42 0 -8 5 -6 11 5 7 11 17 16 29 12 13 -4 23 1 31 17 7 13 19 28 27 34
13 10 17 20 21 69 1 6 6 3 11 -5 9 -13 12 -12 23 5 6 11 12 27 12 35 0 8 6 15
13 15 6 0 12 5 13 10 0 6 7 17 15 27 12 12 12 18 3 24 -7 4 -23 -6 -40 -27
-26 -31 -28 -32 -22 -9 3 14 13 33 21 43 17 20 52 23 52 5 0 -36 65 114 76
177 2 11 11 51 19 89 10 44 15 104 12 170 l-3 101 -2 -96z m-51 -214 c7 15 8
12 4 -12 -2 -18 0 -33 5 -33 6 0 10 -5 10 -11 0 -5 -4 -8 -9 -4 -5 3 -13 0
-17 -7 -12 -18 -21 18 -15 60 4 31 6 33 9 12 4 -24 5 -24 13 -5z m-84 -32 c-3
-10 -5 -2 -5 17 0 19 2 27 5 18 2 -10 2 -26 0 -35z m50 -85 c-3 -7 -5 -2 -5
12 0 14 2 19 5 13 2 -7 2 -19 0 -25z m26 -13 c-3 -9 -8 -14 -10 -11 -3 3 -2 9
2 15 9 16 15 13 8 -4z m-145 -174 c-12 -33 -26 -61 -30 -61 -4 0 5 29 20 64
34 81 42 78 10 -3z"/>
<path d="M3641 2284 c0 -11 3 -14 6 -6 3 7 2 16 -1 19 -3 4 -6 -2 -5 -13z"/>
<path d="M3632 2220 c0 -19 2 -27 5 -17 2 9 2 25 0 35 -3 9 -5 1 -5 -18z"/>
<path d="M3651 2234 c0 -11 3 -14 6 -6 3 7 2 16 -1 19 -3 4 -6 -2 -5 -13z"/>
<path d="M3980 2150 c0 -5 5 -10 10 -10 6 0 10 5 10 10 0 6 -4 10 -10 10 -5 0
-10 -4 -10 -10z"/>
<path d="M3622 1986 c2 -30 6 -52 9 -50 10 6 8 104 -2 104 -5 0 -8 -24 -7 -54z"/>
<path d="M3650 1996 c0 -9 5 -16 10 -16 6 0 10 4 10 9 0 6 -4 13 -10 16 -5 3
-10 -1 -10 -9z"/>
<path d="M3435 1582 c2 -2 -6 -13 -18 -23 -12 -10 -17 -18 -11 -19 6 0 20 11
32 23 17 18 19 24 7 24 -8 0 -13 -2 -10 -5z"/>
<path d="M930 385 l0 -155 65 0 c63 0 65 1 65 25 0 23 -4 25 -40 25 l-40 0 0
45 c0 45 0 45 35 45 28 0 35 4 35 20 0 16 -7 20 -35 20 -35 0 -35 0 -35 45 l0
45 40 0 c33 0 40 3 40 20 0 18 -7 20 -65 20 l-65 0 0 -155z"/>
<path d="M1116 515 c-12 -18 -16 -49 -16 -128 0 -90 3 -108 21 -131 25 -32 70
-35 98 -7 22 22 34 72 29 117 -3 26 -7 29 -41 32 -33 3 -38 1 -35 -15 2 -10
10 -17 16 -15 17 3 16 -85 0 -91 -7 -2 -21 0 -30 5 -15 7 -18 23 -18 102 0 71
4 97 15 106 20 17 45 5 45 -20 0 -16 5 -21 23 -18 17 2 21 8 19 28 -6 39 -31
60 -72 60 -29 0 -41 -6 -54 -25z"/>
<path d="M1307 522 c-14 -15 -17 -41 -17 -135 0 -104 2 -119 20 -137 27 -27
71 -26 98 3 18 19 22 35 22 85 l0 62 -34 0 c-42 0 -54 -15 -26 -30 40 -22 18
-110 -24 -94 -14 6 -16 21 -14 113 3 98 4 106 24 109 14 2 24 -5 32 -23 14
-30 35 -29 40 3 8 51 -85 84 -121 44z"/>
<path d="M1560 385 c0 -148 1 -155 20 -155 19 0 20 7 20 155 0 148 -1 155 -20
155 -19 0 -20 -7 -20 -155z"/>
<path d="M1650 385 c0 -148 1 -155 20 -155 19 0 20 7 21 93 l0 92 33 -90 c26
-72 37 -91 55 -93 21 -3 21 -1 21 152 0 149 -1 156 -20 156 -18 0 -20 -7 -20
-87 0 -49 -4 -83 -9 -77 -4 5 -21 44 -36 87 -21 59 -32 77 -46 77 -18 0 -19
-10 -19 -155z"/>
<path d="M1866 524 c-24 -23 -28 -53 -24 -158 2 -75 7 -98 22 -115 38 -42 116
-16 116 40 0 22 -5 29 -20 29 -13 0 -20 -7 -20 -19 0 -21 -21 -33 -39 -22 -8
5 -11 39 -9 112 2 84 6 104 18 104 8 0 19 -10 25 -22 14 -33 55 -31 55 2 0 54
-85 88 -124 49z"/>
<path d="M1996 531 c-4 -7 -5 -15 -2 -18 9 -9 19 4 14 18 -4 11 -6 11 -12 0z"/>
<path d="M2020 410 c0 -126 1 -132 25 -155 30 -31 68 -32 95 -3 18 20 20 35
20 155 0 126 -1 133 -20 133 -19 0 -20 -7 -20 -124 0 -101 -3 -126 -16 -137
-14 -11 -18 -10 -31 6 -11 16 -13 43 -7 138 l7 117 -27 0 -26 0 0 -130z"/>
<path d="M2210 385 l0 -155 44 0 c29 0 52 7 70 21 22 17 26 28 26 74 0 34 -5
55 -12 58 -10 4 -10 7 0 18 6 7 12 32 12 56 0 58 -27 83 -92 83 l-48 0 0 -155z
m90 100 c24 -29 -11 -88 -41 -69 -10 6 -12 67 -2 77 11 11 30 8 43 -8z m8
-139 c8 -37 -7 -66 -33 -66 -23 0 -25 4 -25 43 0 24 3 46 6 50 11 10 49 -10
52 -27z"/>
<path d="M2406 408 c-14 -73 -29 -143 -32 -155 -5 -19 -2 -23 19 -23 20 0 26
6 31 35 6 31 11 35 36 35 23 0 30 -5 30 -19 0 -33 11 -51 31 -51 24 0 24 1
-11 163 -16 76 -30 140 -30 142 0 3 -11 5 -24 5 -22 0 -25 -7 -50 -132z m67
-35 c6 -29 4 -33 -14 -33 -19 0 -21 4 -15 31 3 17 6 39 6 48 1 24 16 -6 23
-46z"/>
<path d="M2550 520 c0 -15 7 -20 25 -20 l25 0 0 -136 c0 -135 0 -135 23 -132
21 3 22 6 24 133 l1 130 26 3 c18 2 26 9 26 23 0 17 -8 19 -75 19 -68 0 -75
-2 -75 -20z"/>
<path d="M2730 385 c0 -148 1 -155 20 -155 19 0 20 7 20 155 0 148 -1 155 -20
155 -19 0 -20 -7 -20 -155z"/>
<path d="M2837 522 c-14 -15 -17 -41 -17 -140 0 -114 1 -122 22 -136 32 -23
71 -20 96 7 20 21 22 34 22 135 0 99 -2 114 -20 132 -26 26 -81 26 -103 2z
m71 -34 c8 -8 12 -46 12 -105 0 -79 -3 -94 -18 -102 -33 -18 -42 6 -42 110 0
92 3 104 31 108 3 1 10 -4 17 -11z"/>
<path d="M3010 385 c0 -147 1 -155 20 -155 17 0 19 8 22 88 l3 87 30 -85 c25
-69 34 -86 53 -88 l22 -3 0 155 c0 149 -1 156 -20 156 -17 0 -20 -7 -22 -52
-1 -29 0 -69 1 -88 3 -45 -10 -31 -33 35 -34 98 -38 105 -57 105 -18 0 -19
-10 -19 -155z"/>
<path d="M3301 422 c-36 -178 -37 -192 -13 -192 16 0 23 8 28 35 5 30 10 35
34 35 24 0 29 -5 34 -35 6 -28 11 -35 30 -35 l24 0 -18 83 c-52 229 -51 227
-74 227 -19 0 -23 -12 -45 -118z m59 -19 c0 -10 3 -28 6 -40 5 -19 2 -23 -15
-23 -23 0 -24 3 -15 49 7 33 24 43 24 14z"/>
<path d="M3460 386 c0 -149 1 -156 20 -156 18 0 20 7 20 88 1 98 6 96 45 -16
18 -51 28 -68 44 -70 21 -3 21 0 21 152 0 148 -1 156 -20 156 -17 0 -19 -8
-22 -87 l-3 -88 -31 85 c-25 66 -36 86 -53 88 -21 3 -21 1 -21 -152z"/>
<path d="M3660 385 l0 -155 45 0 c35 0 52 6 70 25 23 22 25 31 25 128 0 90 -3
108 -21 131 -17 22 -28 26 -70 26 l-49 0 0 -155z m88 103 c19 -19 16 -183 -4
-203 -31 -31 -39 -12 -42 103 -2 103 -1 112 16 112 10 0 23 -5 30 -12z"/>
<path d="M3920 385 l0 -155 25 0 c24 0 25 2 25 70 0 68 1 70 25 70 24 0 25 -2
25 -71 0 -67 1 -70 23 -67 22 3 22 6 25 156 l3 152 -26 0 c-24 0 -25 -2 -25
-65 0 -63 -1 -65 -25 -65 -24 0 -25 2 -25 65 0 63 -1 65 -25 65 l-25 0 0 -155z"/>
<path d="M4150 533 c0 -5 -14 -73 -30 -153 -17 -80 -30 -146 -30 -147 0 -2 11
-3 25 -3 18 0 25 5 25 19 0 36 12 51 40 51 25 0 29 -4 32 -32 2 -25 8 -34 26
-36 12 -2 22 0 22 5 0 4 -14 74 -31 156 -30 139 -33 147 -55 147 -13 0 -24 -3
-24 -7z m39 -165 c1 -20 -4 -28 -15 -28 -13 0 -15 7 -10 31 3 17 6 39 7 48 1
26 17 -19 18 -51z"/>
<path d="M4270 520 c0 -15 7 -20 25 -20 l25 0 0 -135 c0 -128 1 -135 20 -135
19 0 20 7 21 120 1 66 2 126 3 133 0 6 13 13 29 15 19 2 27 9 27 23 0 17 -8
19 -75 19 -68 0 -75 -2 -75 -20z"/>
<path d="M4460 513 c-20 -25 -21 -38 -18 -134 2 -88 6 -111 22 -128 37 -41
111 -16 118 39 2 19 -2 26 -19 28 -18 3 -23 -2 -23 -17 0 -16 -6 -21 -25 -21
l-26 0 3 107 c3 93 5 108 20 111 12 2 21 -6 28 -22 13 -36 40 -34 40 2 0 62
-80 85 -120 35z"/>
<path d="M4620 384 l0 -155 23 3 c20 3 22 9 25 71 3 64 4 67 27 67 24 0 25 -2
25 -70 0 -63 2 -70 20 -70 19 0 20 7 20 155 0 148 -1 155 -20 155 -18 0 -20
-7 -20 -65 0 -63 -1 -65 -25 -65 -24 0 -25 2 -25 65 0 63 -1 65 -25 65 l-25 0
0 -156z"/>
<path d="M4810 385 l0 -155 65 0 c62 0 65 1 65 24 0 22 -5 25 -42 28 -43 3
-43 3 -43 43 0 39 1 40 38 43 28 2 37 8 37 22 0 14 -9 20 -37 22 -37 3 -38 4
-38 43 0 40 0 40 43 43 34 3 42 7 42 23 0 17 -7 19 -65 19 l-65 0 0 -155z"/>
<path d="M4980 385 c0 -148 1 -155 20 -155 18 0 20 7 20 66 0 56 2 65 17 62
11 -2 24 -25 37 -66 17 -53 23 -62 44 -62 15 0 22 5 20 13 -38 100 -41 120
-24 148 26 44 17 118 -18 141 -6 4 -35 8 -63 8 l-53 0 0 -155z m98 69 c3 -36
0 -42 -20 -47 -12 -4 -25 -1 -29 4 -5 9 -5 69 0 87 1 2 11 2 24 0 18 -2 23
-10 25 -44z"/>
<path d="M5194 532 c-30 -20 -44 -85 -25 -121 6 -10 28 -26 50 -36 37 -16 41
-21 41 -55 0 -26 -5 -40 -16 -44 -19 -7 -44 10 -44 30 0 8 -9 14 -20 14 -27 0
-27 -39 0 -68 47 -50 130 -9 130 63 0 49 -14 71 -59 95 -44 22 -52 36 -40 68
11 29 37 28 49 -3 11 -30 50 -35 50 -6 0 34 -39 71 -73 71 -18 0 -37 -4 -43
-8z"/>
<path d="M1553 3 c857 -2 2257 -2 3110 0 854 1 153 2 -1558 2 -1710 0 -2409
-1 -1552 -2z"/>
</g>
</svg>
